<svg xmlns="http://www.w3.org/2000/svg" viewBox="0 0 1200 400" fill="none">
  <!-- Background -->
  <rect width="1200" height="400" fill="url(#gradient1)"/>
  
  <!-- Gradient definitions -->
  <defs>
    <linearGradient id="gradient1" x1="0%" y1="0%" x2="100%" y2="100%">
      <stop offset="0%" style="stop-color:#1e293b;stop-opacity:0.9"/>
      <stop offset="50%" style="stop-color:#334155;stop-opacity:0.8"/>
      <stop offset="100%" style="stop-color:#475569;stop-opacity:0.9"/>
    </linearGradient>
    
    <linearGradient id="chandelier" x1="0%" y1="0%" x2="0%" y2="100%">
      <stop offset="0%" style="stop-color:#fbbf24;stop-opacity:0.8"/>
      <stop offset="100%" style="stop-color:#f59e0b;stop-opacity:0.6"/>
    </linearGradient>
    
    <radialGradient id="lightGlow" cx="50%" cy="50%" r="50%">
      <stop offset="0%" style="stop-color:#fbbf24;stop-opacity:0.4"/>
      <stop offset="100%" style="stop-color:#fbbf24;stop-opacity:0"/>
    </radialGradient>
  </defs>
  
  <!-- Elegant chandelier silhouettes -->
  <g opacity="0.3">
    <!-- Chandelier 1 -->
    <circle cx="200" cy="60" r="40" fill="url(#lightGlow)"/>
    <rect x="190" y="50" width="20" height="30" rx="10" fill="url(#chandelier)"/>
    <circle cx="185" cy="75" r="3" fill="#fbbf24"/>
    <circle cx="200" cy="75" r="3" fill="#fbbf24"/>
    <circle cx="215" cy="75" r="3" fill="#fbbf24"/>
    
    <!-- Chandelier 2 -->
    <circle cx="600" cy="50" r="50" fill="url(#lightGlow)"/>
    <rect x="585" y="35" width="30" height="40" rx="15" fill="url(#chandelier)"/>
    <circle cx="575" cy="65" r="4" fill="#fbbf24"/>
    <circle cx="600" cy="65" r="4" fill="#fbbf24"/>
    <circle cx="625" cy="65" r="4" fill="#fbbf24"/>
    
    <!-- Chandelier 3 -->
    <circle cx="1000" cy="65" r="35" fill="url(#lightGlow)"/>
    <rect x="992" y="55" width="16" height="25" rx="8" fill="url(#chandelier)"/>
    <circle cx="988" cy="75" r="2.5" fill="#fbbf24"/>
    <circle cx="1000" cy="75" r="2.5" fill="#fbbf24"/>
    <circle cx="1012" cy="75" r="2.5" fill="#fbbf24"/>
  </g>
  
  <!-- Elegant architectural elements -->
  <g opacity="0.2">
    <!-- Columns -->
    <rect x="50" y="100" width="15" height="300" fill="#64748b"/>
    <rect x="300" y="120" width="15" height="280" fill="#64748b"/>
    <rect x="550" y="110" width="15" height="290" fill="#64748b"/>
    <rect x="800" y="115" width="15" height="285" fill="#64748b"/>
    <rect x="1050" y="105" width="15" height="295" fill="#64748b"/>
    
    <!-- Column tops -->
    <rect x="45" y="95" width="25" height="10" rx="2" fill="#94a3b8"/>
    <rect x="295" y="115" width="25" height="10" rx="2" fill="#94a3b8"/>
    <rect x="545" y="105" width="25" height="10" rx="2" fill="#94a3b8"/>
    <rect x="795" y="110" width="25" height="10" rx="2" fill="#94a3b8"/>
    <rect x="1045" y="100" width="25" height="10" rx="2" fill="#94a3b8"/>
  </g>
  
  <!-- Elegant floor pattern -->
  <g opacity="0.1">
    <pattern id="floor" x="0" y="0" width="40" height="40" patternUnits="userSpaceOnUse">
      <rect width="40" height="40" fill="#1e293b"/>
      <rect x="0" y="0" width="20" height="20" fill="#334155"/>
      <rect x="20" y="20" width="20" height="20" fill="#334155"/>
    </pattern>
    <rect x="0" y="350" width="1200" height="50" fill="url(#floor)"/>
  </g>
  
  <!-- Ambient lighting effects -->
  <g opacity="0.15">
    <circle cx="150" cy="200" r="80" fill="url(#lightGlow)"/>
    <circle cx="400" cy="180" r="60" fill="url(#lightGlow)"/>
    <circle cx="700" cy="190" r="70" fill="url(#lightGlow)"/>
    <circle cx="950" cy="200" r="65" fill="url(#lightGlow)"/>
  </g>
  
  <!-- Decorative elements -->
  <g opacity="0.25">
    <!-- Elegant drapes -->
    <path d="M0 0 Q50 100 0 200 Q50 300 0 400" fill="#475569"/>
    <path d="M1200 0 Q1150 100 1200 200 Q1150 300 1200 400" fill="#475569"/>
    
    <!-- Center stage area highlight -->
    <ellipse cx="600" cy="320" rx="200" ry="30" fill="#fbbf24" opacity="0.1"/>
  </g>
</svg>